<svg width="30" height="21" viewBox="0 0 30 21" fill="none" xmlns="http://www.w3.org/2000/svg">
<path fill-rule="evenodd" clip-rule="evenodd" d="M0 2.25876V18.8622C0 19.7655 0.663182 20.4976 1.57685 20.4976H27.5694C28.4821 20.4976 29.1463 19.757 29.1463 18.8622V2.25876C29.1463 1.26751 28.5523 0.497559 27.5694 0.497559H1.57685C0.555971 0.497559 0 1.28643 0 2.25876ZM2.39659 3.70499C2.39659 3.30489 2.63949 3.07593 3.02754 3.07593C3.26758 3.07593 12.7126 9.0424 13.2847 9.39236L14.7629 10.3089C15.2316 9.99578 15.7022 9.72812 16.1879 9.40369C17.1794 8.77186 26.0011 3.07593 26.244 3.07593C26.633 3.07593 26.8749 3.30489 26.8749 3.70499C26.8749 4.12872 26.0561 4.54959 25.5229 4.87402C22.1728 6.9095 18.8236 9.12842 15.5067 11.2396C15.3132 11.3701 14.9384 11.6492 14.6576 11.6066C14.3445 11.5584 4.73342 5.4027 2.98483 4.37739C2.72202 4.22322 2.39659 4.08238 2.39659 3.70499Z" fill="#87351C"/>
</svg>
