<svg width="24" height="25" viewBox="0 0 24 25" fill="none" xmlns="http://www.w3.org/2000/svg">
<path fill-rule="evenodd" clip-rule="evenodd" d="M23.5186 21.2908C22.7794 23.5419 19.8831 24.6646 17.8139 24.4774C14.9879 24.2214 11.9128 22.7194 9.57858 21.065C6.14745 18.6331 2.93346 14.8712 1.06063 10.8794C-0.26297 8.05863 -0.559937 4.59057 1.40869 2.01944C2.13675 1.06906 2.92388 0.561489 4.10697 0.50229C5.74829 0.422292 5.97821 1.36323 6.54182 2.82879C6.96173 3.92476 7.52213 5.04273 7.83507 6.1787C8.42103 8.29864 6.37257 8.38725 6.11392 10.12C5.95266 11.2128 7.27466 12.6782 7.8718 13.4574C9.04212 14.9838 10.4487 16.3003 12.0358 17.3018C12.9442 17.8762 14.4115 18.9113 15.4525 18.3401C17.0555 17.4601 16.9039 14.7515 19.1455 15.6683C20.3062 16.1419 21.4303 16.8253 22.5383 17.4237C24.2515 18.3469 24.1717 19.3036 23.5186 21.2908C24.0072 19.806 23.0301 22.7756 23.5186 21.2908Z" fill="#87351C"/>
</svg>
