<svg width="200" height="63" viewBox="0 0 200 63" fill="none" xmlns="http://www.w3.org/2000/svg">
<path d="M29.9351 24.9792L29.6955 24.8594C29.4831 24.952 29.0148 25.0391 28.296 25.1208C27.5771 25.2025 26.7929 25.2406 25.938 25.2406C25.0884 25.2406 24.2661 25.2406 23.4819 25.2406C22.6977 25.2406 22.1314 25.2406 21.7829 25.2406H16.751C16.4025 25.2406 15.8416 25.2406 15.0519 25.2406C14.2678 25.2406 13.4454 25.2406 12.5959 25.2406C11.7464 25.2406 10.9567 25.2025 10.2379 25.1208C9.51907 25.0445 9.05074 24.9574 8.83836 24.8594L8.59875 24.9792L8.44082 25.3386L8.16309 29.8912H9.08342L9.24134 29.7279C9.37204 28.6551 9.73146 27.958 10.3196 27.6313C10.4231 27.5496 10.6028 27.4842 10.8587 27.4298C11.1092 27.3753 11.4959 27.3317 12.0187 27.2882C12.536 27.2501 13.2222 27.2283 14.0772 27.2283C14.9267 27.2283 16.0213 27.2283 17.35 27.2283H17.7911C17.8184 27.9199 17.8456 28.9382 17.8728 30.2833C17.9001 31.6284 17.9109 33.1641 17.9109 34.8959V42.9991C17.9109 43.7996 17.9109 44.464 17.9109 44.9977C17.9109 45.5314 17.9055 45.9834 17.8892 46.3537C17.8728 46.7294 17.8619 47.0398 17.851 47.2903C17.8347 47.5408 17.8184 47.7641 17.7911 47.9493C17.7367 48.6954 17.5897 49.2127 17.35 49.5068C17.1104 49.8008 16.8817 50.0404 16.6693 50.2256C16.4569 50.4108 16.0812 50.5251 15.5529 50.5632C15.0193 50.6014 14.54 50.6231 14.1153 50.6231L13.9138 50.7811L13.794 51.4999L13.8757 51.538C14.0608 51.538 14.3549 51.538 14.7524 51.538C15.15 51.538 15.5693 51.538 16.0104 51.538C16.4515 51.538 16.8708 51.538 17.2684 51.538C17.6659 51.538 17.96 51.538 18.1451 51.538H20.4214C20.6066 51.538 20.9007 51.538 21.2982 51.538C21.6957 51.538 22.1205 51.538 22.5779 51.538C23.0299 51.538 23.4547 51.538 23.8577 51.538C24.2552 51.538 24.5493 51.538 24.7345 51.538L24.8161 51.4999L24.6963 50.7811L24.4948 50.6231C24.0701 50.6231 23.5908 50.6014 23.0572 50.5632C22.5235 50.5251 22.1532 50.4108 21.9408 50.2256C21.7284 50.0404 21.4997 49.8008 21.2601 49.5068C21.0205 49.2127 20.8734 48.6954 20.819 47.9493C20.7917 47.628 20.77 47.3285 20.7591 47.0507C20.7427 46.773 20.7318 46.4299 20.7209 46.0324C20.7046 45.6348 20.6992 45.1338 20.6992 44.5348C20.6992 43.9358 20.6992 43.157 20.6992 42.1986V34.8523C20.6992 33.0443 20.7046 31.5141 20.7209 30.2615C20.7318 29.009 20.7536 28.0016 20.7808 27.2283H21.222C22.5235 27.2283 23.6017 27.2283 24.4567 27.2283C25.3063 27.2283 25.9924 27.2501 26.5152 27.2882C27.0325 27.3263 27.4192 27.3753 27.6751 27.4298C27.9257 27.4842 28.1054 27.5496 28.2143 27.6313C28.797 27.9525 29.1564 28.6496 29.2925 29.7279L29.4505 29.8912H30.4089L30.0876 25.3386L29.9351 24.9792Z" fill="#F7F4F3"/>
<path d="M71.8182 50.6725C70.9142 50.5636 70.1409 50.4056 69.5037 50.1933C68.8666 49.9809 68.2839 49.7031 67.7665 49.3546C67.2492 49.0115 66.7591 48.5977 66.3071 48.1184C65.8551 47.6392 65.3595 47.0946 64.8313 46.4793C63.8728 45.3629 62.9416 44.2193 62.0376 43.043C61.1336 41.8722 60.2514 40.685 59.4019 39.4869C60.1752 39.3018 60.9594 39.0295 61.7599 38.6701C62.5604 38.3107 63.2793 37.8314 63.9164 37.2324C64.5536 36.6334 65.0818 35.9145 65.4957 35.0759C65.9095 34.2373 66.1165 33.2461 66.1165 32.1025C66.1165 31.1441 65.9368 30.2455 65.5774 29.4069C65.2179 28.5682 64.6516 27.8494 63.8783 27.2504C63.105 26.6513 62.103 26.1776 60.8614 25.8345C59.6252 25.4914 58.1113 25.3171 56.3305 25.3171C56.1181 25.3171 55.8513 25.3171 55.53 25.3171C55.2087 25.3171 54.8602 25.3171 54.4735 25.3171C54.0869 25.3171 53.7057 25.3171 53.3354 25.3171C52.9596 25.3171 52.6274 25.3171 52.3388 25.3171H50.9011C50.607 25.3171 50.2857 25.3063 49.9427 25.2845C49.5941 25.2627 49.2565 25.2409 48.9243 25.2191C48.5921 25.1973 48.2708 25.1755 47.9659 25.1538C47.6609 25.132 47.4104 25.1211 47.2252 25.1211L47.1436 25.2681L47.2634 25.987L47.4649 26.1449C48.1292 26.1449 48.5867 26.1776 48.8426 26.2429C49.0931 26.3083 49.3436 26.4117 49.5832 26.5424C49.7956 26.7276 49.9971 26.9999 50.1823 27.3593C50.3674 27.7187 50.4872 28.2034 50.5417 28.8188C50.5962 29.4831 50.6288 30.1584 50.6397 30.8391C50.6506 31.5198 50.6615 32.1243 50.6615 32.658V43.043C50.6615 43.8435 50.6615 44.5079 50.6615 45.0416C50.6615 45.5753 50.6561 46.0273 50.6397 46.3976C50.6234 46.7733 50.6125 47.0837 50.6016 47.3342C50.5853 47.5847 50.5798 47.808 50.5798 47.9932C50.4981 48.6848 50.3674 49.2021 50.1823 49.5507C49.9971 49.8992 49.7956 50.1497 49.5832 50.3076C49.3436 50.4655 49.0114 50.569 48.5867 50.6071C48.1619 50.6453 47.7862 50.667 47.4703 50.667L47.2688 50.825L47.149 51.5438L47.2307 51.5819C47.4158 51.5819 47.7208 51.5819 48.151 51.5819C48.5758 51.5819 49.0169 51.5819 49.4689 51.5819C49.9209 51.5819 50.362 51.5819 50.7868 51.5819C51.2115 51.5819 51.5165 51.5819 51.7071 51.5819H52.464C52.6492 51.5819 52.9541 51.5819 53.3844 51.5819C53.8091 51.5819 54.2502 51.5819 54.7022 51.5819C55.1542 51.5819 55.5953 51.5819 56.0201 51.5819C56.4449 51.5819 56.7498 51.5819 56.9404 51.5819L57.0221 51.5438L56.9023 50.825L56.7444 50.667C56.0528 50.667 55.579 50.6344 55.3285 50.569C55.0725 50.5037 54.8275 50.4056 54.5879 50.2695C54.4299 50.1388 54.2393 49.9155 54.027 49.6106C53.8146 49.3056 53.6784 48.7665 53.6294 47.9932C53.6022 47.7263 53.5804 47.2798 53.5695 46.6535C53.5586 46.0273 53.5423 45.3302 53.5314 44.5569C53.5151 43.7836 53.5096 42.9722 53.5096 42.1227C53.5096 41.2731 53.5096 40.4835 53.5096 39.7647H56.4231C56.9295 40.5053 57.4796 41.3058 58.0786 42.1662C58.6776 43.0267 59.2494 43.8326 59.794 44.5841C60.3386 45.3356 60.8069 45.9837 61.1935 46.5283C61.5802 47.0728 61.8144 47.3832 61.8906 47.4595C62.5278 48.2273 63.0941 48.8863 63.5897 49.4417C64.0798 49.9972 64.5699 50.4438 65.0491 50.7923C65.5284 51.1354 66.0185 51.3859 66.5249 51.5438C67.0314 51.7017 67.6304 51.7834 68.322 51.7834C68.7468 51.7834 69.3349 51.7834 70.081 51.7834C70.827 51.7834 71.4914 51.7834 72.0796 51.7834L72.1613 51.5438L72.0796 50.825L71.8182 50.6725ZM57.1256 38.0166H55.0072C54.6587 38.0166 54.3864 38.0057 54.1903 37.9785C53.9888 37.9512 53.8364 37.8913 53.7329 37.7988C53.624 37.7062 53.5586 37.5591 53.5314 37.3577C53.5042 37.1562 53.4933 36.8839 53.4933 36.5408V32.6253C53.4933 32.3312 53.4933 32.0263 53.4933 31.705C53.4933 31.3837 53.5042 31.0243 53.5314 30.6267C53.5586 30.2292 53.575 29.7609 53.5913 29.2272C53.6022 28.6935 53.6349 28.0455 53.6893 27.2722H57.1637C59.0806 27.2722 60.5891 27.7133 61.6946 28.59C62.8 29.4668 63.3501 30.7193 63.3501 32.3421C63.3501 34.0739 62.8654 35.4517 61.8906 36.4755C60.9267 37.5047 59.3366 38.0166 57.1256 38.0166Z" fill="#F7F4F3"/>
<path d="M105.195 46.3215C105.01 47.0403 104.814 47.6176 104.618 48.0587C104.422 48.4998 104.079 48.8265 103.599 49.0389C103.12 49.2513 102.423 49.3929 101.503 49.4582C100.583 49.5236 99.3246 49.5563 97.729 49.5563H94.3363C93.8026 49.5563 93.5357 49.3058 93.5357 48.7993C93.4813 48.2983 93.4432 47.8517 93.4159 47.4651C93.3887 47.0784 93.3669 46.6537 93.356 46.1908C93.3397 45.7279 93.3342 45.1942 93.3342 44.6006C93.3342 44.007 93.3342 43.2283 93.3342 42.2753V38.4143C94.1566 38.4143 94.9734 38.4143 95.7685 38.4143C96.5636 38.4143 97.2879 38.4143 97.925 38.4143C98.5622 38.4143 99.1067 38.4524 99.5642 38.5341C100.016 38.6158 100.321 38.7356 100.484 38.899C100.697 39.144 100.882 39.449 101.045 39.8138C101.203 40.1787 101.285 40.5762 101.285 41.0119L101.443 41.1317L102.162 41.2134L102.32 41.1317C102.265 40.4946 102.222 39.9064 102.178 39.3618C102.14 38.8173 102.118 38.2291 102.118 37.592C102.118 37.0093 102.14 36.4919 102.178 36.0399C102.216 35.588 102.265 35.0597 102.32 34.4444L102.162 34.3681L101.481 34.4444L101.28 34.6404C101.28 35.0434 101.198 35.3538 101.04 35.5716C100.882 35.7894 100.691 36.0018 100.479 36.2197C100.321 36.4103 100.011 36.5518 99.5587 36.6444C99.1067 36.737 98.5513 36.786 97.9032 36.786C97.2497 36.786 96.5254 36.786 95.7249 36.786C94.9244 36.786 94.1293 36.786 93.3288 36.786C93.3288 34.526 93.3288 33.0993 93.3288 32.5111C93.3288 31.923 93.3343 31.4111 93.3506 30.9918C93.3615 30.5724 93.3778 30.2185 93.3887 29.9244C93.3996 29.6358 93.4214 29.2818 93.4486 28.8625L93.5303 27.3268H97.3641C98.9597 27.3268 100.201 27.3268 101.078 27.3268C101.955 27.3268 102.614 27.4085 103.055 27.5718C103.496 27.7352 103.757 27.9912 103.855 28.3397C103.948 28.6882 104.019 29.1783 104.073 29.7937L104.231 29.9571H105.228L105.386 25.6114L105.184 25.252C105.048 25.252 104.699 25.252 104.128 25.252C103.556 25.252 102.908 25.252 102.189 25.252C101.47 25.252 100.757 25.252 100.054 25.252C99.3463 25.252 98.8235 25.252 98.475 25.252H91.9293C91.6352 25.252 91.254 25.252 90.7911 25.252C90.3228 25.252 89.8435 25.252 89.3534 25.252C88.8579 25.252 88.4004 25.252 87.9756 25.252C87.5509 25.252 87.2459 25.252 87.0553 25.252L86.9736 25.2901L87.0934 26.0089L87.2949 26.1668C87.7197 26.1668 88.1172 26.1886 88.493 26.2267C88.8633 26.2649 89.1737 26.3792 89.4133 26.5644C89.6257 26.7495 89.8326 26.9946 90.0341 27.305C90.2356 27.61 90.3609 28.1219 90.4153 28.8407C90.4426 29.162 90.4589 29.4778 90.4752 29.7991C90.4861 30.1204 90.497 30.5071 90.497 30.9591C90.497 31.4111 90.497 31.9557 90.497 32.5982C90.497 33.2354 90.497 34.025 90.497 34.9562V43.0595C90.497 43.86 90.497 44.5244 90.497 45.0581C90.497 45.5918 90.4916 46.0438 90.4752 46.4141C90.4589 46.7844 90.448 47.1002 90.4371 47.3507C90.4208 47.6012 90.4153 47.8245 90.4153 48.0097C90.3609 48.7557 90.2356 49.2731 90.0341 49.5672C89.8326 49.8612 89.6257 50.1008 89.4133 50.286C89.1737 50.4711 88.8687 50.5855 88.493 50.6236C88.1172 50.6618 87.7197 50.6835 87.2949 50.6835L87.0934 50.8415L86.9736 51.5603L87.0553 51.5984C87.2405 51.5984 87.5454 51.5984 87.9756 51.5984C88.4004 51.5984 88.8415 51.5984 89.2935 51.5984C89.7455 51.5984 90.1866 51.5984 90.6114 51.5984C91.0361 51.5984 91.3411 51.5984 91.5317 51.5984H99.5968C99.9399 51.5984 100.414 51.5984 101.013 51.5984C101.612 51.5984 102.211 51.5984 102.81 51.5984C103.409 51.5984 103.948 51.5984 104.427 51.5984C104.906 51.5984 105.211 51.5984 105.348 51.5984L105.669 51.2009L106.388 46.169H105.348L105.195 46.3215Z" fill="#F7F4F3"/>
<path d="M143.887 46.3863C143.702 47.1705 143.446 47.775 143.13 48.1943C142.809 48.6136 142.264 48.9295 141.491 49.1473C140.717 49.3651 139.628 49.4741 138.218 49.4741C136.807 49.4741 134.918 49.4741 132.549 49.4741H129.352L129.151 49.4142C129.336 48.8587 129.777 47.971 130.469 46.7621C131.16 45.5531 131.999 44.1863 132.985 42.656C133.97 41.1258 135.032 39.5138 136.181 37.8147C137.325 36.1157 138.441 34.5146 139.536 33.0116C140.625 31.5086 141.627 30.1744 142.531 29.0036C143.435 27.8327 144.126 26.9995 144.606 26.4931L144.807 25.4965L144.486 25.0391C144.246 25.0717 143.974 25.099 143.669 25.1207C143.364 25.1425 143.054 25.1643 142.749 25.1806C142.444 25.197 142.15 25.2024 141.872 25.2024C141.594 25.2024 141.371 25.2024 141.213 25.2024H138.577C137.886 25.2024 136.399 25.2024 134.128 25.2024C131.857 25.2024 129.025 25.2024 125.644 25.2024L125.322 25.5128L124.685 29.6952L124.925 29.9729H125.644L125.883 29.766C125.987 29.1669 126.161 28.6986 126.401 28.361C126.64 28.0233 127.027 27.7674 127.561 27.604C128.094 27.4406 128.819 27.3589 129.739 27.3589C130.659 27.3589 131.863 27.3589 133.355 27.3589H139.024L139.225 27.5332C138.855 28.3827 138.289 29.4664 137.526 30.7789C136.769 32.0913 135.909 33.5072 134.95 35.0211C133.992 36.535 132.979 38.087 131.917 39.6826C130.85 41.2782 129.815 42.7758 128.802 44.1863C127.789 45.5913 126.853 46.8438 125.987 47.9329C125.121 49.0221 124.424 49.8335 123.89 50.3617V51.2821L124.288 51.7232C124.979 51.6959 125.693 51.6687 126.422 51.6415C127.152 51.6142 127.811 51.6033 128.399 51.6033H134.787C135.027 51.6033 135.408 51.6033 135.925 51.6033C136.443 51.6033 137.031 51.6033 137.684 51.6033C138.338 51.6033 139.013 51.6033 139.721 51.6033C140.423 51.6033 141.082 51.6033 141.698 51.6033C142.308 51.6033 142.841 51.6033 143.293 51.6033C143.745 51.6033 144.023 51.6033 144.132 51.6033L144.491 51.2113L145.21 46.1576H144.132L143.887 46.3863Z" fill="#F7F4F3"/>
<path d="M188.564 33.2237C187.976 31.6009 187.132 30.1686 186.026 28.9324C184.921 27.6963 183.559 26.716 181.936 25.9972C180.314 25.2784 178.462 24.9189 176.387 24.9189C174.34 24.9189 172.499 25.2784 170.876 25.9972C169.253 26.716 167.881 27.6963 166.765 28.9324C165.648 30.1686 164.793 31.6226 164.211 33.2836C163.622 34.95 163.334 36.7253 163.334 38.615C163.334 40.3957 163.601 42.0948 164.134 43.7067C164.668 45.3187 165.474 46.7291 166.552 47.9381C167.63 49.147 168.959 50.1164 170.544 50.8352C172.129 51.554 173.986 51.9134 176.115 51.9134C178.299 51.9134 180.221 51.5322 181.882 50.7753C183.543 50.0183 184.937 49.0109 186.053 47.7584C187.17 46.5058 188.014 45.0627 188.591 43.4236C189.163 41.7844 189.451 40.0908 189.451 38.3318C189.441 36.551 189.147 34.8465 188.564 33.2237ZM185.688 42.8082C185.236 44.1914 184.583 45.4058 183.733 46.4405C182.884 47.4752 181.838 48.2975 180.602 48.8965C179.366 49.4955 177.945 49.795 176.349 49.795C174.884 49.795 173.55 49.5282 172.336 48.9945C171.127 48.4608 170.081 47.7039 169.199 46.7182C168.322 45.7325 167.641 44.5345 167.162 43.124C166.683 41.7136 166.443 40.118 166.443 38.3318C166.443 36.709 166.65 35.2114 167.064 33.8391C167.478 32.4667 168.093 31.2796 168.921 30.2667C169.743 29.2537 170.762 28.4641 171.976 27.8923C173.185 27.3205 174.579 27.0319 176.148 27.0319C177.743 27.0319 179.175 27.3205 180.439 27.8923C181.702 28.4641 182.775 29.2646 183.652 30.2884C184.529 31.3122 185.204 32.5157 185.667 33.899C186.13 35.2822 186.364 36.7743 186.364 38.3699C186.369 39.9437 186.14 41.4195 185.688 42.8082Z" fill="#F7F4F3"/>
<path d="M199.935 0L0.77874 13.7015H0V62.9309H0.95845V14.649L199.521 0.991119L200 0.958446L199.935 0Z" fill="#F7F4F3"/>
</svg>
