<svg width="31" height="31" viewBox="0 0 31 31" fill="none" xmlns="http://www.w3.org/2000/svg">
<path d="M15.1181 0C23.4681 0 30.2363 6.7833 30.2363 15.1498C30.2363 23.5163 23.4681 30.2995 15.1181 30.2995C6.76812 30.2995 0 23.5162 0 15.1498C0 6.78341 6.76822 0 15.1181 0Z" fill="#87351C"/>
<path d="M8.51906 20.8158H11.35V11.3604H8.51906V20.8158ZM19.5478 11.0329C18.1739 11.0329 16.9446 11.5357 16.0726 12.6454V11.3293H13.2313V20.8159H16.0726V15.6858C16.0726 14.6016 17.0638 13.544 18.3053 13.544C19.5469 13.544 19.8531 14.6016 19.8531 15.6593V20.8149H22.684V15.4481C22.6839 11.7203 20.9226 11.0329 19.5478 11.0329ZM9.92128 10.4155C10.7037 10.4155 11.3387 9.77919 11.3387 8.99518C11.3387 8.21117 10.7037 7.57495 9.92128 7.57495C9.1389 7.57495 8.50391 8.21127 8.50391 8.99528C8.50391 9.77929 9.1389 10.4155 9.92128 10.4155Z" fill="#F7F4F3"/>
</svg>
