<svg width="23" height="31" viewBox="0 0 23 31" fill="none" xmlns="http://www.w3.org/2000/svg">
<path fill-rule="evenodd" clip-rule="evenodd" d="M11.1454 0C4.98356 0 0 4.98356 0 11.1454C0 17.7848 7.03749 26.9399 9.93528 30.4268C10.5722 31.1911 11.7345 31.1911 12.3713 30.4268C15.2532 26.9399 22.2907 17.7848 22.2907 11.1454C22.2907 4.98356 17.3071 0 11.1454 0ZM11.1454 15.1258C8.94812 15.1258 7.16487 13.3426 7.16487 11.1454C7.16487 8.94812 8.94812 7.16487 11.1454 7.16487C13.3426 7.16487 15.1258 8.94812 15.1258 11.1454C15.1258 13.3426 13.3426 15.1258 11.1454 15.1258Z" fill="#87351C"/>
</svg>
