<svg width="30" height="31" viewBox="0 0 30 31" fill="none" xmlns="http://www.w3.org/2000/svg">
<g clip-path="url(#clip0)">
<path d="M15 30.4976C23.2843 30.4976 30 23.7818 30 15.4976C30 7.21331 23.2843 0.497559 15 0.497559C6.71575 0.497559 0 7.21331 0 15.4976C0 23.7818 6.71575 30.4976 15 30.4976Z" fill="#87351C"/>
<path fill-rule="evenodd" clip-rule="evenodd" d="M15.4944 23.8429H15.4908C13.9979 23.8423 12.5311 23.4678 11.2283 22.7572L6.5 23.9975L7.76538 19.3756C6.98481 18.0229 6.57413 16.4885 6.57475 14.9165C6.57675 9.99859 10.578 5.99756 15.4943 5.99756C17.8804 5.99859 20.1199 6.92747 21.8039 8.61346C23.4879 10.2993 24.4148 12.5403 24.4138 14.9235C24.4119 19.8402 20.4122 23.8409 15.4944 23.8429ZM11.4474 21.1425L11.7181 21.3031C12.8564 21.9786 14.1611 22.336 15.4914 22.3365H15.4944C19.5805 22.3365 22.9062 19.0108 22.9078 14.923C22.9086 12.9421 22.1383 11.0795 20.7386 9.67815C19.3389 8.27684 17.4775 7.50478 15.4973 7.50409C11.4081 7.50409 8.08238 10.8295 8.08075 14.917C8.08019 16.3178 8.47213 17.682 9.21419 18.8623L9.3905 19.1428L8.64156 21.8785L11.4474 21.1425ZM19.6828 16.8438C19.8382 16.919 19.9432 16.9697 19.988 17.0445C20.0437 17.1375 20.0437 17.5836 19.8581 18.1043C19.6723 18.6249 18.7819 19.1 18.3537 19.164C17.9698 19.2214 17.4838 19.2453 16.9499 19.0757C16.6263 18.973 16.2112 18.8359 15.6794 18.6062C13.5901 17.7041 12.1781 15.679 11.9113 15.2963C11.8926 15.2695 11.8795 15.2508 11.8722 15.241L11.8704 15.2387C11.7525 15.0813 10.9622 14.0268 10.9622 12.9355C10.9622 11.909 11.4664 11.3709 11.6986 11.1232C11.7145 11.1062 11.7291 11.0906 11.7422 11.0763C11.9465 10.8532 12.1879 10.7974 12.3365 10.7974C12.4851 10.7974 12.6338 10.7988 12.7637 10.8053C12.7797 10.8061 12.7964 10.806 12.8136 10.8059C12.9434 10.8052 13.1054 10.8042 13.2651 11.1879C13.3266 11.3355 13.4165 11.5545 13.5113 11.7853C13.7031 12.2522 13.915 12.768 13.9523 12.8427C14.008 12.9543 14.0451 13.0843 13.9708 13.2332C13.9597 13.2555 13.9494 13.2765 13.9395 13.2966C13.8837 13.4105 13.8427 13.4943 13.7479 13.6049C13.7108 13.6484 13.6723 13.6953 13.6338 13.7422C13.5571 13.8355 13.4804 13.9289 13.4137 13.9954C13.3021 14.1065 13.1859 14.2271 13.3159 14.4502C13.4459 14.6733 13.8933 15.4031 14.5558 15.9941C15.268 16.6293 15.887 16.8978 16.2008 17.034C16.262 17.0605 16.3116 17.0821 16.3481 17.1003C16.5708 17.2119 16.7008 17.1932 16.8309 17.0445C16.9609 16.8958 17.388 16.3937 17.5365 16.1706C17.6851 15.9476 17.8337 15.9848 18.0379 16.0591C18.2423 16.1335 19.338 16.6726 19.5609 16.7841C19.6044 16.806 19.6451 16.8256 19.6828 16.8438Z" fill="#F7F4F3"/>
</g>
<defs>
<clipPath id="clip0">
<rect width="30" height="30" fill="white" transform="translate(0 0.497559)"/>
</clipPath>
</defs>
</svg>
